<svg xmlns="http://www.w3.org/2000/svg" xmlns:xlink="http://www.w3.org/1999/xlink" width="500" zoomAndPan="magnify" viewBox="0 0 375 374.999991" height="500" preserveAspectRatio="xMidYMid meet" version="1.0"><defs><g/><clipPath id="a9f110850b"><path d="M 196 159 L 276 159 L 276 227 L 196 227 Z M 196 159 " clip-rule="nonzero"/></clipPath><clipPath id="e1c87d49a4"><path d="M 233.464844 135.90625 L 318.761719 176.585938 L 273.882812 270.679688 L 188.585938 230 Z M 233.464844 135.90625 " clip-rule="nonzero"/></clipPath><clipPath id="84372bf80f"><path d="M 233.464844 135.90625 L 318.761719 176.585938 L 273.882812 270.679688 L 188.585938 230 Z M 233.464844 135.90625 " clip-rule="nonzero"/></clipPath><clipPath id="c0f0e15f6c"><path d="M 233.464844 135.90625 L 318.761719 176.585938 L 273.882812 270.679688 L 188.585938 230 Z M 233.464844 135.90625 " clip-rule="nonzero"/></clipPath><clipPath id="f30345358f"><path d="M 194 172 L 292 172 L 292 233 L 194 233 Z M 194 172 " clip-rule="nonzero"/></clipPath><clipPath id="98e50aef1c"><path d="M 233.464844 135.90625 L 318.761719 176.585938 L 273.882812 270.679688 L 188.585938 230 Z M 233.464844 135.90625 " clip-rule="nonzero"/></clipPath><clipPath id="40352e5a5b"><path d="M 233.464844 135.90625 L 318.761719 176.585938 L 273.882812 270.679688 L 188.585938 230 Z M 233.464844 135.90625 " clip-rule="nonzero"/></clipPath><clipPath id="2e9d1863b8"><path d="M 233.464844 135.90625 L 318.761719 176.585938 L 273.882812 270.679688 L 188.585938 230 Z M 233.464844 135.90625 " clip-rule="nonzero"/></clipPath><clipPath id="f80913bf34"><path d="M 199 146 L 260 146 L 260 219 L 199 219 Z M 199 146 " clip-rule="nonzero"/></clipPath><clipPath id="5e778d7aab"><path d="M 233.464844 135.90625 L 318.761719 176.585938 L 273.882812 270.679688 L 188.585938 230 Z M 233.464844 135.90625 " clip-rule="nonzero"/></clipPath><clipPath id="84b1a27720"><path d="M 233.464844 135.90625 L 318.761719 176.585938 L 273.882812 270.679688 L 188.585938 230 Z M 233.464844 135.90625 " clip-rule="nonzero"/></clipPath><clipPath id="93c3d8a6a1"><path d="M 233.464844 135.90625 L 318.761719 176.585938 L 273.882812 270.679688 L 188.585938 230 Z M 233.464844 135.90625 " clip-rule="nonzero"/></clipPath><clipPath id="b2f215a955"><path d="M 56 135 L 187 135 L 187 271 L 56 271 Z M 56 135 " clip-rule="nonzero"/></clipPath><clipPath id="e7a7f6220e"><path d="M 56.273438 176.28125 L 141.742188 135.972656 L 186.210938 230.261719 L 100.742188 270.574219 Z M 56.273438 176.28125 " clip-rule="nonzero"/></clipPath><clipPath id="25170da203"><path d="M 42 24 L 123 24 L 123 92 L 42 92 Z M 42 24 " clip-rule="nonzero"/></clipPath><clipPath id="5ea167a4a5"><path d="M 0.273438 41.28125 L 85.742188 0.972656 L 130.210938 95.261719 L 44.742188 135.574219 Z M 0.273438 41.28125 " clip-rule="nonzero"/></clipPath><clipPath id="d4f2d6d44c"><path d="M 85.699219 0.992188 L 0.230469 41.304688 L 44.699219 135.59375 L 130.167969 95.285156 Z M 85.699219 0.992188 " clip-rule="nonzero"/></clipPath><clipPath id="553e196973"><path d="M 85.699219 0.992188 L 0.230469 41.304688 L 44.699219 135.59375 L 130.167969 95.285156 Z M 85.699219 0.992188 " clip-rule="nonzero"/></clipPath><clipPath id="a23782dff7"><path d="M 26 37 L 125 37 L 125 98 L 26 98 Z M 26 37 " clip-rule="nonzero"/></clipPath><clipPath id="78d0b93d84"><path d="M 0.273438 41.28125 L 85.742188 0.972656 L 130.210938 95.261719 L 44.742188 135.574219 Z M 0.273438 41.28125 " clip-rule="nonzero"/></clipPath><clipPath id="f800b83b6f"><path d="M 85.699219 0.992188 L 0.230469 41.304688 L 44.699219 135.59375 L 130.167969 95.285156 Z M 85.699219 0.992188 " clip-rule="nonzero"/></clipPath><clipPath id="54dbc15f65"><path d="M 85.699219 0.992188 L 0.230469 41.304688 L 44.699219 135.59375 L 130.167969 95.285156 Z M 85.699219 0.992188 " clip-rule="nonzero"/></clipPath><clipPath id="8c0ee4c76c"><path d="M 58 11 L 120 11 L 120 85 L 58 85 Z M 58 11 " clip-rule="nonzero"/></clipPath><clipPath id="fb3f7bab0b"><path d="M 0.273438 41.28125 L 85.742188 0.972656 L 130.210938 95.261719 L 44.742188 135.574219 Z M 0.273438 41.28125 " clip-rule="nonzero"/></clipPath><clipPath id="c90937c424"><path d="M 85.699219 0.992188 L 0.230469 41.304688 L 44.699219 135.59375 L 130.167969 95.285156 Z M 85.699219 0.992188 " clip-rule="nonzero"/></clipPath><clipPath id="887fb5e259"><path d="M 85.699219 0.992188 L 0.230469 41.304688 L 44.699219 135.59375 L 130.167969 95.285156 Z M 85.699219 0.992188 " clip-rule="nonzero"/></clipPath><clipPath id="4f5255de00"><rect x="0" width="131" y="0" height="136"/></clipPath><clipPath id="6177e29c82"><path d="M 142.328125 104.609375 L 214 104.609375 L 214 128 L 142.328125 128 Z M 142.328125 104.609375 " clip-rule="nonzero"/></clipPath><clipPath id="e7fb916379"><path d="M 157 126 L 216.578125 126 L 216.578125 212.609375 L 157 212.609375 Z M 157 126 " clip-rule="nonzero"/></clipPath></defs><rect x="-37.5" width="450" fill="#ffffff" y="-37.499999" height="449.999989" fill-opacity="1"/><rect x="-37.5" width="450" fill="#ffffff" y="-37.499999" height="449.999989" fill-opacity="1"/><g clip-path="url(#a9f110850b)"><g clip-path="url(#e1c87d49a4)"><g clip-path="url(#84372bf80f)"><g clip-path="url(#c0f0e15f6c)"><path fill="#3871c1" d="M 275.824219 219.132812 L 270.738281 159.085938 C 270.738281 159.085938 264.714844 159.816406 257.59375 162.042969 L 258.101562 168.054688 C 260.023438 167.960938 262.050781 168.003906 264.179688 168.230469 L 268.574219 211.738281 C 268.574219 211.738281 219.320312 206.105469 196.546875 226.332031 C 196.546875 226.332031 225 209.214844 275.824219 219.132812 " fill-opacity="1" fill-rule="nonzero"/></g></g></g></g><g clip-path="url(#f30345358f)"><g clip-path="url(#98e50aef1c)"><g clip-path="url(#40352e5a5b)"><g clip-path="url(#2e9d1863b8)"><path fill="#2e3192" d="M 286.765625 172.902344 C 286.765625 172.902344 280.746094 173.632812 273.625 175.859375 L 274.132812 181.871094 C 276.054688 181.773438 278.082031 181.816406 280.210938 182.042969 L 284.601562 225.554688 C 284.601562 225.554688 226.253906 212.460938 194.152344 232.660156 C 194.152344 232.660156 229.535156 220.21875 291.855469 232.949219 L 286.765625 172.902344 " fill-opacity="1" fill-rule="nonzero"/></g></g></g></g><g clip-path="url(#f80913bf34)"><g clip-path="url(#5e778d7aab)"><g clip-path="url(#84b1a27720)"><g clip-path="url(#93c3d8a6a1)"><path fill="#00adef" d="M 199.371094 218.878906 C 199.371094 218.878906 223.773438 199.4375 259.875 206.125 L 254.789062 146.078125 C 254.789062 146.078125 227.640625 149.367188 220.429688 163.300781 C 220.429688 163.300781 231.136719 153.402344 248.230469 155.21875 L 252.625 198.730469 C 252.625 198.730469 217.703125 197.527344 199.371094 218.878906 " fill-opacity="1" fill-rule="nonzero"/></g></g></g></g><g clip-path="url(#b2f215a955)"><g clip-path="url(#e7a7f6220e)"><g transform="matrix(1, 0, 0, 1, 56, 135)"><g clip-path="url(#4f5255de00)"><g clip-path="url(#25170da203)"><g clip-path="url(#5ea167a4a5)"><g clip-path="url(#d4f2d6d44c)"><g clip-path="url(#553e196973)"><path fill="#3871c1" d="M 42.984375 84.035156 L 48.332031 24.011719 C 48.332031 24.011719 54.347656 24.769531 61.460938 27.027344 L 60.925781 33.035156 C 59.003906 32.933594 56.976562 32.964844 54.847656 33.183594 L 50.265625 76.675781 C 50.265625 76.675781 99.539062 71.253906 122.226562 91.582031 C 122.226562 91.582031 93.847656 74.339844 42.984375 84.035156 " fill-opacity="1" fill-rule="nonzero"/></g></g></g></g><g clip-path="url(#a23782dff7)"><g clip-path="url(#78d0b93d84)"><g clip-path="url(#f800b83b6f)"><g clip-path="url(#54dbc15f65)"><path fill="#2e3192" d="M 32.242188 37.757812 C 32.242188 37.757812 38.257812 38.515625 45.371094 40.773438 L 44.835938 46.78125 C 42.914062 46.675781 40.886719 46.710938 38.757812 46.929688 L 34.175781 90.417969 C 34.175781 90.417969 92.578125 77.582031 124.59375 97.917969 C 124.59375 97.917969 89.265625 85.324219 26.890625 97.78125 L 32.242188 37.757812 " fill-opacity="1" fill-rule="nonzero"/></g></g></g></g><g clip-path="url(#8c0ee4c76c)"><g clip-path="url(#fb3f7bab0b)"><g clip-path="url(#c90937c424)"><g clip-path="url(#887fb5e259)"><path fill="#00adef" d="M 119.433594 84.113281 C 119.433594 84.113281 95.117188 64.566406 58.988281 71.097656 L 64.335938 11.074219 C 64.335938 11.074219 91.46875 14.480469 98.621094 28.445312 C 98.621094 28.445312 87.953125 18.5 70.851562 20.246094 L 66.269531 63.734375 C 66.269531 63.734375 101.195312 62.6875 119.433594 84.113281 " fill-opacity="1" fill-rule="nonzero"/></g></g></g></g></g></g></g></g><g clip-path="url(#6177e29c82)"><path fill="#00adef" d="M 213.503906 116.730469 C 213.429688 117.910156 212.605469 118.910156 211.492188 119.3125 L 188.195312 127.753906 C 187.875 127.867188 187.535156 127.925781 187.199219 127.925781 C 186.863281 127.925781 186.523438 127.867188 186.203125 127.753906 L 164.523438 119.902344 C 163.839844 119.652344 163.503906 118.863281 163.824219 118.191406 C 164.105469 117.601562 164.8125 117.351562 165.425781 117.574219 L 187.050781 125.40625 C 187.148438 125.441406 187.25 125.441406 187.34375 125.40625 L 210.730469 116.933594 C 210.960938 116.851562 211.011719 116.671875 211.011719 116.535156 C 211.015625 116.421875 210.980469 116.222656 210.738281 116.132812 L 187.351562 107.199219 C 187.253906 107.164062 187.144531 107.164062 187.046875 107.199219 L 170.875 113.375 C 171.449219 113.582031 172.039062 113.804688 172.640625 114.046875 C 181.222656 117.5 187.101562 114.597656 189.214844 113.203125 C 189.421875 113.066406 189.660156 113 189.894531 113 C 190.242188 113 190.582031 113.144531 190.828125 113.417969 C 191.332031 113.988281 191.210938 114.871094 190.574219 115.289062 C 188 116.976562 181.289062 120.21875 171.710938 116.363281 C 158.292969 110.960938 153.019531 115.59375 151.34375 117.902344 L 152.878906 118.832031 L 149.109375 124.90625 C 148.15625 126.441406 146.160156 126.957031 144.582031 126.070312 C 142.914062 125.128906 142.359375 122.992188 143.359375 121.363281 L 147.066406 115.3125 L 149.234375 116.625 C 151.039062 114.128906 156.003906 109.542969 166.957031 112.203125 L 186.15625 104.871094 C 186.828125 104.613281 187.570312 104.613281 188.242188 104.871094 L 211.628906 113.800781 C 212.835938 114.261719 213.589844 115.421875 213.503906 116.730469 Z M 213.503906 116.730469 " fill-opacity="1" fill-rule="nonzero"/></g><g clip-path="url(#e7fb916379)"><path fill="#00adef" d="M 198.40625 126.914062 L 188.195312 130.613281 C 187.875 130.730469 187.535156 130.789062 187.199219 130.789062 C 186.863281 130.789062 186.523438 130.730469 186.203125 130.613281 L 175.632812 126.785156 C 170.871094 143.253906 157.832031 156.554688 157.832031 156.554688 C 161.59375 160.96875 165.28125 166.609375 168.738281 172.886719 L 179.207031 195.472656 C 181.160156 200.484375 184.289062 208.167969 185.734375 212.871094 L 185.410156 188.910156 C 185.570312 185.359375 185.578125 167.46875 185.488281 159.621094 C 184.347656 159.039062 183.566406 157.859375 183.566406 156.492188 C 183.566406 154.578125 185.097656 153.027344 187 152.988281 C 188.90625 153.027344 190.4375 154.578125 190.4375 156.492188 C 190.4375 157.859375 189.652344 159.039062 188.511719 159.621094 C 188.421875 167.46875 188.429688 185.359375 188.589844 188.910156 L 188.265625 212.871094 C 189.714844 208.167969 192.839844 200.480469 194.792969 195.472656 L 205.265625 172.886719 C 208.71875 166.609375 212.410156 160.96875 216.171875 156.554688 C 216.171875 156.554688 203.199219 143.324219 198.40625 126.914062 Z M 198.40625 126.914062 " fill-opacity="1" fill-rule="nonzero"/></g><g fill="#2e3192" fill-opacity="1"><g transform="translate(147.633334, 255.471134)"><g><path d="M 4.203125 0.078125 C 3.492188 0.078125 2.8125 -0.0351562 2.15625 -0.265625 C 1.5 -0.492188 0.992188 -0.789062 0.640625 -1.15625 L 1.046875 -1.9375 C 1.390625 -1.59375 1.847656 -1.3125 2.421875 -1.09375 C 2.992188 -0.882812 3.585938 -0.78125 4.203125 -0.78125 C 5.054688 -0.78125 5.695312 -0.9375 6.125 -1.25 C 6.5625 -1.5625 6.78125 -1.972656 6.78125 -2.484375 C 6.78125 -2.859375 6.660156 -3.160156 6.421875 -3.390625 C 6.191406 -3.617188 5.90625 -3.796875 5.5625 -3.921875 C 5.226562 -4.046875 4.757812 -4.179688 4.15625 -4.328125 C 3.4375 -4.503906 2.863281 -4.675781 2.4375 -4.84375 C 2.007812 -5.019531 1.640625 -5.28125 1.328125 -5.625 C 1.023438 -5.96875 0.875 -6.4375 0.875 -7.03125 C 0.875 -7.519531 1 -7.960938 1.25 -8.359375 C 1.507812 -8.753906 1.90625 -9.066406 2.4375 -9.296875 C 2.96875 -9.535156 3.625 -9.65625 4.40625 -9.65625 C 4.957031 -9.65625 5.492188 -9.582031 6.015625 -9.4375 C 6.535156 -9.289062 6.988281 -9.082031 7.375 -8.8125 L 7.03125 -8 C 6.632812 -8.269531 6.207031 -8.46875 5.75 -8.59375 C 5.289062 -8.726562 4.84375 -8.796875 4.40625 -8.796875 C 3.5625 -8.796875 2.925781 -8.632812 2.5 -8.3125 C 2.082031 -7.988281 1.875 -7.570312 1.875 -7.0625 C 1.875 -6.675781 1.988281 -6.367188 2.21875 -6.140625 C 2.457031 -5.910156 2.75 -5.734375 3.09375 -5.609375 C 3.445312 -5.484375 3.921875 -5.347656 4.515625 -5.203125 C 5.222656 -5.023438 5.789062 -4.851562 6.21875 -4.6875 C 6.65625 -4.519531 7.023438 -4.265625 7.328125 -3.921875 C 7.628906 -3.578125 7.78125 -3.113281 7.78125 -2.53125 C 7.78125 -2.050781 7.648438 -1.609375 7.390625 -1.203125 C 7.128906 -0.804688 6.726562 -0.492188 6.1875 -0.265625 C 5.644531 -0.0351562 4.984375 0.078125 4.203125 0.078125 Z M 4.203125 0.078125 "/></g></g></g><g fill="#2e3192" fill-opacity="1"><g transform="translate(158.243186, 255.471134)"><g><path d="M 3.421875 -8.703125 L 0.0625 -8.703125 L 0.0625 -9.578125 L 7.796875 -9.578125 L 7.796875 -8.703125 L 4.4375 -8.703125 L 4.4375 0 L 3.421875 0 Z M 3.421875 -8.703125 "/></g></g></g><g fill="#2e3192" fill-opacity="1"><g transform="translate(168.291853, 255.471134)"><g><path d="M 5.421875 0.078125 C 4.179688 0.078125 3.210938 -0.273438 2.515625 -0.984375 C 1.828125 -1.691406 1.484375 -2.726562 1.484375 -4.09375 L 1.484375 -9.578125 L 2.484375 -9.578125 L 2.484375 -4.140625 C 2.484375 -3.023438 2.734375 -2.191406 3.234375 -1.640625 C 3.742188 -1.097656 4.472656 -0.828125 5.421875 -0.828125 C 6.378906 -0.828125 7.109375 -1.097656 7.609375 -1.640625 C 8.109375 -2.191406 8.359375 -3.023438 8.359375 -4.140625 L 8.359375 -9.578125 L 9.34375 -9.578125 L 9.34375 -4.09375 C 9.34375 -2.726562 9 -1.691406 8.3125 -0.984375 C 7.625 -0.273438 6.660156 0.078125 5.421875 0.078125 Z M 5.421875 0.078125 "/></g></g></g><g fill="#2e3192" fill-opacity="1"><g transform="translate(181.324395, 255.471134)"><g><path d="M 1.5625 -9.578125 L 5.46875 -9.578125 C 6.476562 -9.578125 7.367188 -9.375 8.140625 -8.96875 C 8.921875 -8.5625 9.523438 -7.992188 9.953125 -7.265625 C 10.378906 -6.546875 10.59375 -5.722656 10.59375 -4.796875 C 10.59375 -3.859375 10.378906 -3.023438 9.953125 -2.296875 C 9.523438 -1.578125 8.921875 -1.015625 8.140625 -0.609375 C 7.367188 -0.203125 6.476562 0 5.46875 0 L 1.5625 0 Z M 5.40625 -0.875 C 6.25 -0.875 6.984375 -1.039062 7.609375 -1.375 C 8.242188 -1.707031 8.734375 -2.164062 9.078125 -2.75 C 9.421875 -3.34375 9.59375 -4.023438 9.59375 -4.796875 C 9.59375 -5.554688 9.421875 -6.226562 9.078125 -6.8125 C 8.734375 -7.40625 8.242188 -7.867188 7.609375 -8.203125 C 6.984375 -8.535156 6.25 -8.703125 5.40625 -8.703125 L 2.578125 -8.703125 L 2.578125 -0.875 Z M 5.40625 -0.875 "/></g></g></g><g fill="#2e3192" fill-opacity="1"><g transform="translate(194.822311, 255.471134)"><g><path d="M 8.328125 -0.875 L 8.328125 0 L 1.5625 0 L 1.5625 -9.578125 L 8.125 -9.578125 L 8.125 -8.703125 L 2.578125 -8.703125 L 2.578125 -5.296875 L 7.53125 -5.296875 L 7.53125 -4.4375 L 2.578125 -4.4375 L 2.578125 -0.875 Z M 8.328125 -0.875 "/></g></g></g><g fill="#2e3192" fill-opacity="1"><g transform="translate(206.171291, 255.471134)"><g><path d="M 9.5625 -9.578125 L 9.5625 0 L 8.734375 0 L 2.578125 -7.78125 L 2.578125 0 L 1.5625 0 L 1.5625 -9.578125 L 2.390625 -9.578125 L 8.5625 -1.8125 L 8.5625 -9.578125 Z M 9.5625 -9.578125 "/></g></g></g><g fill="#2e3192" fill-opacity="1"><g transform="translate(219.491263, 255.471134)"><g><path d="M 3.421875 -8.703125 L 0.0625 -8.703125 L 0.0625 -9.578125 L 7.796875 -9.578125 L 7.796875 -8.703125 L 4.4375 -8.703125 L 4.4375 0 L 3.421875 0 Z M 3.421875 -8.703125 "/></g></g></g><g fill="#2e3192" fill-opacity="1"><g transform="translate(87.961463, 274.221133)"><g><path d="M 11.515625 -9.578125 L 11.515625 0 L 10.546875 0 L 10.546875 -7.671875 L 6.78125 -1.21875 L 6.296875 -1.21875 L 2.53125 -7.625 L 2.53125 0 L 1.5625 0 L 1.5625 -9.578125 L 2.390625 -9.578125 L 6.5625 -2.484375 L 10.671875 -9.578125 Z M 11.515625 -9.578125 "/></g></g></g><g fill="#2e3192" fill-opacity="1"><g transform="translate(103.225066, 274.221133)"><g><path d="M 7.5625 -2.5625 L 2.234375 -2.5625 L 1.078125 0 L 0.03125 0 L 4.40625 -9.578125 L 5.40625 -9.578125 L 9.78125 0 L 8.71875 0 Z M 7.203125 -3.375 L 4.90625 -8.53125 L 2.59375 -3.375 Z M 7.203125 -3.375 "/></g></g></g><g fill="#2e3192" fill-opacity="1"><g transform="translate(115.231039, 274.221133)"><g><path d="M 9.5625 -9.578125 L 9.5625 0 L 8.734375 0 L 2.578125 -7.78125 L 2.578125 0 L 1.5625 0 L 1.5625 -9.578125 L 2.390625 -9.578125 L 8.5625 -1.8125 L 8.5625 -9.578125 Z M 9.5625 -9.578125 "/></g></g></g><g fill="#2e3192" fill-opacity="1"><g transform="translate(128.551011, 274.221133)"><g><path d="M 7.5625 -2.5625 L 2.234375 -2.5625 L 1.078125 0 L 0.03125 0 L 4.40625 -9.578125 L 5.40625 -9.578125 L 9.78125 0 L 8.71875 0 Z M 7.203125 -3.375 L 4.90625 -8.53125 L 2.59375 -3.375 Z M 7.203125 -3.375 "/></g></g></g><g fill="#2e3192" fill-opacity="1"><g transform="translate(140.556984, 274.221133)"><g><path d="M 8.3125 -4.796875 L 9.28125 -4.796875 L 9.28125 -1.140625 C 8.832031 -0.742188 8.300781 -0.441406 7.6875 -0.234375 C 7.082031 -0.0234375 6.441406 0.078125 5.765625 0.078125 C 4.804688 0.078125 3.941406 -0.128906 3.171875 -0.546875 C 2.410156 -0.960938 1.8125 -1.539062 1.375 -2.28125 C 0.9375 -3.03125 0.71875 -3.867188 0.71875 -4.796875 C 0.71875 -5.710938 0.9375 -6.539062 1.375 -7.28125 C 1.8125 -8.03125 2.410156 -8.613281 3.171875 -9.03125 C 3.941406 -9.445312 4.8125 -9.65625 5.78125 -9.65625 C 6.507812 -9.65625 7.175781 -9.539062 7.78125 -9.3125 C 8.394531 -9.082031 8.910156 -8.738281 9.328125 -8.28125 L 8.703125 -7.640625 C 7.941406 -8.390625 6.976562 -8.765625 5.8125 -8.765625 C 5.039062 -8.765625 4.34375 -8.59375 3.71875 -8.25 C 3.09375 -7.90625 2.601562 -7.425781 2.25 -6.8125 C 1.894531 -6.207031 1.71875 -5.535156 1.71875 -4.796875 C 1.71875 -4.046875 1.894531 -3.367188 2.25 -2.765625 C 2.601562 -2.160156 3.085938 -1.6875 3.703125 -1.34375 C 4.328125 -1 5.023438 -0.828125 5.796875 -0.828125 C 6.785156 -0.828125 7.625 -1.070312 8.3125 -1.5625 Z M 8.3125 -4.796875 "/></g></g></g><g fill="#2e3192" fill-opacity="1"><g transform="translate(153.329459, 274.221133)"><g><path d="M 8.328125 -0.875 L 8.328125 0 L 1.5625 0 L 1.5625 -9.578125 L 8.125 -9.578125 L 8.125 -8.703125 L 2.578125 -8.703125 L 2.578125 -5.296875 L 7.53125 -5.296875 L 7.53125 -4.4375 L 2.578125 -4.4375 L 2.578125 -0.875 Z M 8.328125 -0.875 "/></g></g></g><g fill="#2e3192" fill-opacity="1"><g transform="translate(164.678438, 274.221133)"><g><path d="M 11.515625 -9.578125 L 11.515625 0 L 10.546875 0 L 10.546875 -7.671875 L 6.78125 -1.21875 L 6.296875 -1.21875 L 2.53125 -7.625 L 2.53125 0 L 1.5625 0 L 1.5625 -9.578125 L 2.390625 -9.578125 L 6.5625 -2.484375 L 10.671875 -9.578125 Z M 11.515625 -9.578125 "/></g></g></g><g fill="#2e3192" fill-opacity="1"><g transform="translate(179.94204, 274.221133)"><g><path d="M 8.328125 -0.875 L 8.328125 0 L 1.5625 0 L 1.5625 -9.578125 L 8.125 -9.578125 L 8.125 -8.703125 L 2.578125 -8.703125 L 2.578125 -5.296875 L 7.53125 -5.296875 L 7.53125 -4.4375 L 2.578125 -4.4375 L 2.578125 -0.875 Z M 8.328125 -0.875 "/></g></g></g><g fill="#2e3192" fill-opacity="1"><g transform="translate(191.29102, 274.221133)"><g><path d="M 9.5625 -9.578125 L 9.5625 0 L 8.734375 0 L 2.578125 -7.78125 L 2.578125 0 L 1.5625 0 L 1.5625 -9.578125 L 2.390625 -9.578125 L 8.5625 -1.8125 L 8.5625 -9.578125 Z M 9.5625 -9.578125 "/></g></g></g><g fill="#2e3192" fill-opacity="1"><g transform="translate(204.610992, 274.221133)"><g><path d="M 3.421875 -8.703125 L 0.0625 -8.703125 L 0.0625 -9.578125 L 7.796875 -9.578125 L 7.796875 -8.703125 L 4.4375 -8.703125 L 4.4375 0 L 3.421875 0 Z M 3.421875 -8.703125 "/></g></g></g><g fill="#2e3192" fill-opacity="1"><g transform="translate(214.659659, 274.221133)"><g/></g></g><g fill="#2e3192" fill-opacity="1"><g transform="translate(220.437826, 274.221133)"><g><path d="M 4.203125 0.078125 C 3.492188 0.078125 2.8125 -0.0351562 2.15625 -0.265625 C 1.5 -0.492188 0.992188 -0.789062 0.640625 -1.15625 L 1.046875 -1.9375 C 1.390625 -1.59375 1.847656 -1.3125 2.421875 -1.09375 C 2.992188 -0.882812 3.585938 -0.78125 4.203125 -0.78125 C 5.054688 -0.78125 5.695312 -0.9375 6.125 -1.25 C 6.5625 -1.5625 6.78125 -1.972656 6.78125 -2.484375 C 6.78125 -2.859375 6.660156 -3.160156 6.421875 -3.390625 C 6.191406 -3.617188 5.90625 -3.796875 5.5625 -3.921875 C 5.226562 -4.046875 4.757812 -4.179688 4.15625 -4.328125 C 3.4375 -4.503906 2.863281 -4.675781 2.4375 -4.84375 C 2.007812 -5.019531 1.640625 -5.28125 1.328125 -5.625 C 1.023438 -5.96875 0.875 -6.4375 0.875 -7.03125 C 0.875 -7.519531 1 -7.960938 1.25 -8.359375 C 1.507812 -8.753906 1.90625 -9.066406 2.4375 -9.296875 C 2.96875 -9.535156 3.625 -9.65625 4.40625 -9.65625 C 4.957031 -9.65625 5.492188 -9.582031 6.015625 -9.4375 C 6.535156 -9.289062 6.988281 -9.082031 7.375 -8.8125 L 7.03125 -8 C 6.632812 -8.269531 6.207031 -8.46875 5.75 -8.59375 C 5.289062 -8.726562 4.84375 -8.796875 4.40625 -8.796875 C 3.5625 -8.796875 2.925781 -8.632812 2.5 -8.3125 C 2.082031 -7.988281 1.875 -7.570312 1.875 -7.0625 C 1.875 -6.675781 1.988281 -6.367188 2.21875 -6.140625 C 2.457031 -5.910156 2.75 -5.734375 3.09375 -5.609375 C 3.445312 -5.484375 3.921875 -5.347656 4.515625 -5.203125 C 5.222656 -5.023438 5.789062 -4.851562 6.21875 -4.6875 C 6.65625 -4.519531 7.023438 -4.265625 7.328125 -3.921875 C 7.628906 -3.578125 7.78125 -3.113281 7.78125 -2.53125 C 7.78125 -2.050781 7.648438 -1.609375 7.390625 -1.203125 C 7.128906 -0.804688 6.726562 -0.492188 6.1875 -0.265625 C 5.644531 -0.0351562 4.984375 0.078125 4.203125 0.078125 Z M 4.203125 0.078125 "/></g></g></g><g fill="#2e3192" fill-opacity="1"><g transform="translate(231.047677, 274.221133)"><g><path d="M 4.84375 -3.3125 L 4.84375 0 L 3.84375 0 L 3.84375 -3.3125 L 0.015625 -9.578125 L 1.09375 -9.578125 L 4.375 -4.203125 L 7.671875 -9.578125 L 8.671875 -9.578125 Z M 4.84375 -3.3125 "/></g></g></g><g fill="#2e3192" fill-opacity="1"><g transform="translate(241.931283, 274.221133)"><g><path d="M 4.203125 0.078125 C 3.492188 0.078125 2.8125 -0.0351562 2.15625 -0.265625 C 1.5 -0.492188 0.992188 -0.789062 0.640625 -1.15625 L 1.046875 -1.9375 C 1.390625 -1.59375 1.847656 -1.3125 2.421875 -1.09375 C 2.992188 -0.882812 3.585938 -0.78125 4.203125 -0.78125 C 5.054688 -0.78125 5.695312 -0.9375 6.125 -1.25 C 6.5625 -1.5625 6.78125 -1.972656 6.78125 -2.484375 C 6.78125 -2.859375 6.660156 -3.160156 6.421875 -3.390625 C 6.191406 -3.617188 5.90625 -3.796875 5.5625 -3.921875 C 5.226562 -4.046875 4.757812 -4.179688 4.15625 -4.328125 C 3.4375 -4.503906 2.863281 -4.675781 2.4375 -4.84375 C 2.007812 -5.019531 1.640625 -5.28125 1.328125 -5.625 C 1.023438 -5.96875 0.875 -6.4375 0.875 -7.03125 C 0.875 -7.519531 1 -7.960938 1.25 -8.359375 C 1.507812 -8.753906 1.90625 -9.066406 2.4375 -9.296875 C 2.96875 -9.535156 3.625 -9.65625 4.40625 -9.65625 C 4.957031 -9.65625 5.492188 -9.582031 6.015625 -9.4375 C 6.535156 -9.289062 6.988281 -9.082031 7.375 -8.8125 L 7.03125 -8 C 6.632812 -8.269531 6.207031 -8.46875 5.75 -8.59375 C 5.289062 -8.726562 4.84375 -8.796875 4.40625 -8.796875 C 3.5625 -8.796875 2.925781 -8.632812 2.5 -8.3125 C 2.082031 -7.988281 1.875 -7.570312 1.875 -7.0625 C 1.875 -6.675781 1.988281 -6.367188 2.21875 -6.140625 C 2.457031 -5.910156 2.75 -5.734375 3.09375 -5.609375 C 3.445312 -5.484375 3.921875 -5.347656 4.515625 -5.203125 C 5.222656 -5.023438 5.789062 -4.851562 6.21875 -4.6875 C 6.65625 -4.519531 7.023438 -4.265625 7.328125 -3.921875 C 7.628906 -3.578125 7.78125 -3.113281 7.78125 -2.53125 C 7.78125 -2.050781 7.648438 -1.609375 7.390625 -1.203125 C 7.128906 -0.804688 6.726562 -0.492188 6.1875 -0.265625 C 5.644531 -0.0351562 4.984375 0.078125 4.203125 0.078125 Z M 4.203125 0.078125 "/></g></g></g><g fill="#2e3192" fill-opacity="1"><g transform="translate(252.541134, 274.221133)"><g><path d="M 3.421875 -8.703125 L 0.0625 -8.703125 L 0.0625 -9.578125 L 7.796875 -9.578125 L 7.796875 -8.703125 L 4.4375 -8.703125 L 4.4375 0 L 3.421875 0 Z M 3.421875 -8.703125 "/></g></g></g><g fill="#2e3192" fill-opacity="1"><g transform="translate(262.589801, 274.221133)"><g><path d="M 8.328125 -0.875 L 8.328125 0 L 1.5625 0 L 1.5625 -9.578125 L 8.125 -9.578125 L 8.125 -8.703125 L 2.578125 -8.703125 L 2.578125 -5.296875 L 7.53125 -5.296875 L 7.53125 -4.4375 L 2.578125 -4.4375 L 2.578125 -0.875 Z M 8.328125 -0.875 "/></g></g></g><g fill="#2e3192" fill-opacity="1"><g transform="translate(273.93878, 274.221133)"><g><path d="M 11.515625 -9.578125 L 11.515625 0 L 10.546875 0 L 10.546875 -7.671875 L 6.78125 -1.21875 L 6.296875 -1.21875 L 2.53125 -7.625 L 2.53125 0 L 1.5625 0 L 1.5625 -9.578125 L 2.390625 -9.578125 L 6.5625 -2.484375 L 10.671875 -9.578125 Z M 11.515625 -9.578125 "/></g></g></g><g fill="#2e3192" fill-opacity="1"><g transform="translate(162.148851, 296.326622)"><g><path d="M 6.21875 0.125 C 5.164062 0.125 4.15625 -0.0390625 3.1875 -0.375 C 2.21875 -0.71875 1.472656 -1.164062 0.953125 -1.71875 L 1.53125 -2.875 C 2.050781 -2.363281 2.734375 -1.945312 3.578125 -1.625 C 4.429688 -1.3125 5.3125 -1.15625 6.21875 -1.15625 C 7.488281 -1.15625 8.441406 -1.382812 9.078125 -1.84375 C 9.710938 -2.3125 10.03125 -2.921875 10.03125 -3.671875 C 10.03125 -4.234375 9.851562 -4.679688 9.5 -5.015625 C 9.15625 -5.359375 8.734375 -5.617188 8.234375 -5.796875 C 7.742188 -5.984375 7.050781 -6.1875 6.15625 -6.40625 C 5.09375 -6.664062 4.242188 -6.921875 3.609375 -7.171875 C 2.972656 -7.421875 2.425781 -7.800781 1.96875 -8.3125 C 1.519531 -8.832031 1.296875 -9.53125 1.296875 -10.40625 C 1.296875 -11.125 1.484375 -11.773438 1.859375 -12.359375 C 2.242188 -12.953125 2.828125 -13.421875 3.609375 -13.765625 C 4.390625 -14.117188 5.359375 -14.296875 6.515625 -14.296875 C 7.328125 -14.296875 8.117188 -14.179688 8.890625 -13.953125 C 9.671875 -13.734375 10.347656 -13.429688 10.921875 -13.046875 L 10.40625 -11.84375 C 9.8125 -12.238281 9.175781 -12.53125 8.5 -12.71875 C 7.832031 -12.914062 7.171875 -13.015625 6.515625 -13.015625 C 5.273438 -13.015625 4.34375 -12.773438 3.71875 -12.296875 C 3.09375 -11.816406 2.78125 -11.203125 2.78125 -10.453125 C 2.78125 -9.878906 2.953125 -9.421875 3.296875 -9.078125 C 3.640625 -8.734375 4.066406 -8.46875 4.578125 -8.28125 C 5.097656 -8.101562 5.800781 -7.90625 6.6875 -7.6875 C 7.71875 -7.4375 8.554688 -7.1875 9.203125 -6.9375 C 9.847656 -6.6875 10.390625 -6.304688 10.828125 -5.796875 C 11.273438 -5.296875 11.5 -4.613281 11.5 -3.75 C 11.5 -3.03125 11.304688 -2.375 10.921875 -1.78125 C 10.535156 -1.195312 9.941406 -0.734375 9.140625 -0.390625 C 8.347656 -0.046875 7.375 0.125 6.21875 0.125 Z M 6.21875 0.125 "/></g></g></g><g fill="#2e3192" fill-opacity="1"><g transform="translate(177.834591, 296.326622)"><g><path d="M 17.03125 -14.171875 L 17.03125 0 L 15.59375 0 L 15.59375 -11.34375 L 10.03125 -1.796875 L 9.3125 -1.796875 L 3.75 -11.28125 L 3.75 0 L 2.3125 0 L 2.3125 -14.171875 L 3.546875 -14.171875 L 9.703125 -3.671875 L 15.796875 -14.171875 Z M 17.03125 -14.171875 "/></g></g></g><g fill="#2e3192" fill-opacity="1"><g transform="translate(200.401366, 296.326622)"><g><path d="M 6.21875 0.125 C 5.164062 0.125 4.15625 -0.0390625 3.1875 -0.375 C 2.21875 -0.71875 1.472656 -1.164062 0.953125 -1.71875 L 1.53125 -2.875 C 2.050781 -2.363281 2.734375 -1.945312 3.578125 -1.625 C 4.429688 -1.3125 5.3125 -1.15625 6.21875 -1.15625 C 7.488281 -1.15625 8.441406 -1.382812 9.078125 -1.84375 C 9.710938 -2.3125 10.03125 -2.921875 10.03125 -3.671875 C 10.03125 -4.234375 9.851562 -4.679688 9.5 -5.015625 C 9.15625 -5.359375 8.734375 -5.617188 8.234375 -5.796875 C 7.742188 -5.984375 7.050781 -6.1875 6.15625 -6.40625 C 5.09375 -6.664062 4.242188 -6.921875 3.609375 -7.171875 C 2.972656 -7.421875 2.425781 -7.800781 1.96875 -8.3125 C 1.519531 -8.832031 1.296875 -9.53125 1.296875 -10.40625 C 1.296875 -11.125 1.484375 -11.773438 1.859375 -12.359375 C 2.242188 -12.953125 2.828125 -13.421875 3.609375 -13.765625 C 4.390625 -14.117188 5.359375 -14.296875 6.515625 -14.296875 C 7.328125 -14.296875 8.117188 -14.179688 8.890625 -13.953125 C 9.671875 -13.734375 10.347656 -13.429688 10.921875 -13.046875 L 10.40625 -11.84375 C 9.8125 -12.238281 9.175781 -12.53125 8.5 -12.71875 C 7.832031 -12.914062 7.171875 -13.015625 6.515625 -13.015625 C 5.273438 -13.015625 4.34375 -12.773438 3.71875 -12.296875 C 3.09375 -11.816406 2.78125 -11.203125 2.78125 -10.453125 C 2.78125 -9.878906 2.953125 -9.421875 3.296875 -9.078125 C 3.640625 -8.734375 4.066406 -8.46875 4.578125 -8.28125 C 5.097656 -8.101562 5.800781 -7.90625 6.6875 -7.6875 C 7.71875 -7.4375 8.554688 -7.1875 9.203125 -6.9375 C 9.847656 -6.6875 10.390625 -6.304688 10.828125 -5.796875 C 11.273438 -5.296875 11.5 -4.613281 11.5 -3.75 C 11.5 -3.03125 11.304688 -2.375 10.921875 -1.78125 C 10.535156 -1.195312 9.941406 -0.734375 9.140625 -0.390625 C 8.347656 -0.046875 7.375 0.125 6.21875 0.125 Z M 6.21875 0.125 "/></g></g></g></svg>