<svg xmlns="http://www.w3.org/2000/svg" xmlns:xlink="http://www.w3.org/1999/xlink" width="500" zoomAndPan="magnify" viewBox="0 0 375 374.999991" height="500" preserveAspectRatio="xMidYMid meet" version="1.0"><defs><g/><clipPath id="1457a6f621"><path d="M 116.402344 124.675781 L 258.902344 124.675781 L 258.902344 204.175781 L 116.402344 204.175781 Z M 116.402344 124.675781 " clip-rule="nonzero"/></clipPath><clipPath id="02a2e0c84e"><rect x="0" width="165" y="0" height="11"/></clipPath></defs><rect x="-37.5" width="450" fill="#ffffff" y="-37.499999" height="449.999989" fill-opacity="1"/><rect x="-37.5" width="450" fill="#ffffff" y="-37.499999" height="449.999989" fill-opacity="1"/><g clip-path="url(#1457a6f621)"><path fill="#0c6980" d="M 193.164062 192.753906 C 195.242188 191.800781 198.136719 190.691406 202.058594 189.582031 C 211.488281 186.921875 228.949219 183.75 258.582031 183.75 L 258.582031 180.667969 C 222.4375 180.667969 203.613281 185.257812 194.382812 188.882812 C 196.511719 186.988281 199.320312 184.835938 202.953125 182.695312 C 212.570312 177.019531 230.019531 170.261719 258.582031 170.261719 L 258.582031 167.179688 C 249.191406 167.179688 240.964844 167.902344 233.785156 169.078125 C 233.304688 157.429688 228.539062 146.53125 220.253906 138.25 C 211.605469 129.605469 200.113281 124.785156 187.914062 124.683594 C 187.777344 124.679688 187.636719 124.679688 187.496094 124.675781 C 187.488281 124.675781 187.480469 124.675781 187.472656 124.675781 C 187.332031 124.675781 187.191406 124.679688 187.074219 124.679688 C 187.070312 124.679688 187.066406 124.679688 187.0625 124.679688 C 187.0625 124.679688 187.0625 124.679688 187.058594 124.679688 C 174.839844 124.789062 163.351562 129.605469 154.710938 138.25 C 146.429688 146.523438 141.664062 157.414062 141.179688 169.066406 C 134.007812 167.898438 125.796875 167.179688 116.425781 167.179688 L 116.425781 170.261719 C 144.984375 170.261719 162.441406 177.019531 172.050781 182.691406 C 175.683594 184.832031 178.496094 186.984375 180.621094 188.878906 C 171.390625 185.261719 152.566406 180.671875 116.421875 180.671875 L 116.421875 183.753906 C 146.054688 183.753906 163.511719 186.925781 172.941406 189.585938 C 176.863281 190.691406 179.757812 191.804688 181.839844 192.753906 L 116.421875 192.753906 L 116.421875 204.292969 L 258.566406 204.292969 L 258.566406 192.753906 Z M 177.449219 179.121094 C 177.320312 176.476562 177.25 173.761719 177.25 171.023438 C 177.25 168.289062 177.320312 165.574219 177.449219 162.929688 C 180.71875 162.761719 184.082031 162.671875 187.480469 162.671875 C 190.882812 162.671875 194.246094 162.761719 197.507812 162.929688 C 197.636719 165.574219 197.710938 168.285156 197.710938 171.023438 C 197.710938 173.761719 197.636719 176.472656 197.507812 179.121094 C 194.242188 179.285156 190.878906 179.375 187.480469 179.375 C 184.082031 179.375 180.71875 179.285156 177.449219 179.121094 Z M 176.820312 142.53125 C 175.726562 147.667969 174.945312 153.640625 174.527344 160.011719 C 168.921875 160.378906 163.644531 160.996094 159.070312 161.8125 C 159.867188 156.335938 161.359375 151.222656 163.519531 146.570312 C 167.625 144.699219 172.085938 143.34375 176.820312 142.53125 Z M 187.480469 127.757812 C 189.160156 127.757812 191.816406 130.71875 194.074219 138.871094 C 189.738281 138.4375 185.226562 138.4375 180.882812 138.871094 C 183.148438 130.722656 185.800781 127.757812 187.480469 127.757812 Z M 211.4375 146.570312 C 213.566406 151.164062 215.089844 156.382812 215.886719 161.8125 C 211.3125 160.996094 206.035156 160.378906 200.433594 160.011719 C 200.015625 153.636719 199.230469 147.667969 198.136719 142.53125 C 202.878906 143.34375 207.339844 144.699219 211.4375 146.570312 Z M 180.082031 142.058594 C 184.921875 141.488281 190.035156 141.488281 194.878906 142.058594 C 196.046875 147.191406 196.886719 153.285156 197.332031 159.835938 C 194.117188 159.679688 190.816406 159.59375 187.476562 159.59375 C 184.140625 159.59375 180.835938 159.679688 177.625 159.835938 C 178.074219 153.285156 178.914062 147.191406 180.082031 142.058594 Z M 203.792969 178.691406 C 202.738281 178.785156 201.671875 178.863281 200.601562 178.933594 C 200.722656 176.347656 200.789062 173.695312 200.789062 171.023438 C 200.789062 168.347656 200.722656 165.699219 200.601562 163.109375 C 206.335938 163.5 211.699219 164.152344 216.265625 165.015625 C 216.453125 166.992188 216.554688 169.007812 216.554688 171.023438 C 216.554688 171.785156 216.535156 172.535156 216.511719 173.269531 C 211.441406 174.96875 207.230469 176.851562 203.792969 178.691406 Z M 219.421875 165.671875 C 225.546875 167.074219 228.613281 168.625 229.925781 169.769531 C 226.183594 170.503906 222.757812 171.355469 219.625 172.289062 C 219.636719 171.871094 219.636719 171.453125 219.636719 171.027344 C 219.636719 169.234375 219.5625 167.441406 219.421875 165.671875 Z M 219.085938 162.4375 C 218.46875 157.617188 217.335938 153.042969 215.710938 148.78125 C 223.382812 153.285156 228.496094 159.464844 230.15625 166.1875 C 227.695312 164.746094 224 163.492188 219.085938 162.4375 Z M 197.378906 139.285156 C 196.40625 135.503906 195.03125 131.472656 193.15625 128.605469 C 199.316406 130.453125 204.96875 135.261719 209.191406 142.304688 C 205.472656 140.921875 201.515625 139.914062 197.378906 139.285156 Z M 177.625 139.125 L 177.585938 139.285156 C 173.449219 139.914062 169.492188 140.921875 165.769531 142.304688 C 169.992188 135.265625 175.644531 130.453125 181.808594 128.605469 C 179.960938 131.429688 178.597656 135.386719 177.625 139.125 Z M 155.875 162.4375 C 150.964844 163.492188 147.269531 164.742188 144.808594 166.1875 C 146.472656 159.457031 151.582031 153.28125 159.246094 148.78125 C 157.625 153.042969 156.496094 157.617188 155.875 162.4375 Z M 155.539062 165.671875 C 155.394531 167.441406 155.320312 169.234375 155.320312 171.027344 C 155.320312 171.445312 155.332031 171.863281 155.335938 172.28125 C 152.207031 171.351562 148.78125 170.496094 145.046875 169.765625 C 146.363281 168.617188 149.433594 167.070312 155.539062 165.671875 Z M 158.402344 171.023438 C 158.402344 169.007812 158.503906 166.992188 158.691406 165.015625 C 163.257812 164.152344 168.617188 163.5 174.355469 163.109375 C 174.234375 165.699219 174.167969 168.351562 174.167969 171.023438 C 174.167969 173.699219 174.234375 176.347656 174.355469 178.933594 C 173.308594 178.863281 172.261719 178.785156 171.210938 178.695312 C 167.761719 176.84375 163.539062 174.960938 158.441406 173.257812 C 158.421875 172.519531 158.402344 171.773438 158.402344 171.023438 Z M 177.625 182.214844 C 180.84375 182.375 184.148438 182.457031 187.484375 182.457031 C 190.820312 182.457031 194.125 182.371094 197.339844 182.214844 C 197.332031 182.363281 197.316406 182.511719 197.304688 182.664062 C 192.140625 186.269531 189.070312 189.632812 187.503906 191.632812 C 185.929688 189.621094 182.847656 186.25 177.65625 182.628906 C 177.644531 182.492188 177.636719 182.351562 177.625 182.214844 Z M 227.460938 154.566406 C 224.074219 150.515625 219.421875 146.976562 213.746094 144.246094 C 211.039062 138.726562 207.558594 134.203125 203.59375 130.902344 C 214.347656 135.269531 223.007812 143.863281 227.460938 154.566406 Z M 171.363281 130.914062 C 167.398438 134.214844 163.921875 138.734375 161.214844 144.246094 C 155.542969 146.976562 150.894531 150.515625 147.503906 154.570312 C 151.960938 143.867188 160.609375 135.28125 171.363281 130.914062 Z M 255.484375 201.207031 L 119.503906 201.207031 L 119.503906 195.835938 L 255.484375 195.835938 Z M 255.484375 201.207031 " fill-opacity="1" fill-rule="nonzero"/></g><g transform="matrix(1, 0, 0, 1, 105, 223)"><g clip-path="url(#02a2e0c84e)"><g fill="#53494c" fill-opacity="1"><g transform="translate(1.278437, 7.787352)"><g/></g></g><g fill="#53494c" fill-opacity="1"><g transform="translate(4.351507, 7.787352)"><g><path d="M 2.5 0.09375 C 2.0625 0.09375 1.632812 0.0351562 1.21875 -0.078125 C 0.800781 -0.203125 0.46875 -0.359375 0.21875 -0.546875 L 0.65625 -1.53125 C 0.90625 -1.351562 1.191406 -1.207031 1.515625 -1.09375 C 1.847656 -0.988281 2.179688 -0.9375 2.515625 -0.9375 C 2.878906 -0.9375 3.148438 -0.988281 3.328125 -1.09375 C 3.503906 -1.207031 3.59375 -1.359375 3.59375 -1.546875 C 3.59375 -1.679688 3.539062 -1.789062 3.4375 -1.875 C 3.332031 -1.96875 3.195312 -2.039062 3.03125 -2.09375 C 2.875 -2.144531 2.65625 -2.203125 2.375 -2.265625 C 1.945312 -2.367188 1.597656 -2.46875 1.328125 -2.5625 C 1.054688 -2.664062 0.820312 -2.828125 0.625 -3.046875 C 0.4375 -3.273438 0.34375 -3.578125 0.34375 -3.953125 C 0.34375 -4.273438 0.425781 -4.566406 0.59375 -4.828125 C 0.769531 -5.097656 1.035156 -5.3125 1.390625 -5.46875 C 1.742188 -5.625 2.179688 -5.703125 2.703125 -5.703125 C 3.054688 -5.703125 3.398438 -5.65625 3.734375 -5.5625 C 4.078125 -5.476562 4.378906 -5.359375 4.640625 -5.203125 L 4.234375 -4.21875 C 3.722656 -4.507812 3.207031 -4.65625 2.6875 -4.65625 C 2.320312 -4.65625 2.050781 -4.59375 1.875 -4.46875 C 1.707031 -4.351562 1.625 -4.203125 1.625 -4.015625 C 1.625 -3.828125 1.722656 -3.6875 1.921875 -3.59375 C 2.117188 -3.5 2.425781 -3.40625 2.84375 -3.3125 C 3.269531 -3.207031 3.617188 -3.101562 3.890625 -3 C 4.160156 -2.90625 4.390625 -2.75 4.578125 -2.53125 C 4.773438 -2.3125 4.875 -2.015625 4.875 -1.640625 C 4.875 -1.316406 4.785156 -1.023438 4.609375 -0.765625 C 4.429688 -0.503906 4.160156 -0.296875 3.796875 -0.140625 C 3.441406 0.015625 3.007812 0.09375 2.5 0.09375 Z M 2.5 0.09375 "/></g></g></g><g fill="#53494c" fill-opacity="1"><g transform="translate(10.255835, 7.787352)"><g><path d="M 1.828125 -4.546875 L 0.03125 -4.546875 L 0.03125 -5.59375 L 4.90625 -5.59375 L 4.90625 -4.546875 L 3.125 -4.546875 L 3.125 0 L 1.828125 0 Z M 1.828125 -4.546875 "/></g></g></g><g fill="#53494c" fill-opacity="1"><g transform="translate(16.00015, 7.787352)"><g><path d="M 3.15625 0.09375 C 2.351562 0.09375 1.726562 -0.125 1.28125 -0.5625 C 0.832031 -1.007812 0.609375 -1.644531 0.609375 -2.46875 L 0.609375 -5.59375 L 1.90625 -5.59375 L 1.90625 -2.515625 C 1.90625 -1.515625 2.320312 -1.015625 3.15625 -1.015625 C 3.5625 -1.015625 3.867188 -1.132812 4.078125 -1.375 C 4.296875 -1.613281 4.40625 -1.992188 4.40625 -2.515625 L 4.40625 -5.59375 L 5.6875 -5.59375 L 5.6875 -2.46875 C 5.6875 -1.644531 5.460938 -1.007812 5.015625 -0.5625 C 4.578125 -0.125 3.957031 0.09375 3.15625 0.09375 Z M 3.15625 0.09375 "/></g></g></g><g fill="#53494c" fill-opacity="1"><g transform="translate(23.10455, 7.787352)"><g><path d="M 0.65625 -5.59375 L 3.203125 -5.59375 C 3.816406 -5.59375 4.351562 -5.476562 4.8125 -5.25 C 5.28125 -5.019531 5.644531 -4.691406 5.90625 -4.265625 C 6.164062 -3.847656 6.296875 -3.359375 6.296875 -2.796875 C 6.296875 -2.234375 6.164062 -1.742188 5.90625 -1.328125 C 5.644531 -0.910156 5.28125 -0.582031 4.8125 -0.34375 C 4.351562 -0.113281 3.816406 0 3.203125 0 L 0.65625 0 Z M 3.140625 -1.0625 C 3.703125 -1.0625 4.148438 -1.21875 4.484375 -1.53125 C 4.816406 -1.84375 4.984375 -2.265625 4.984375 -2.796875 C 4.984375 -3.328125 4.816406 -3.75 4.484375 -4.0625 C 4.148438 -4.375 3.703125 -4.53125 3.140625 -4.53125 L 1.953125 -4.53125 L 1.953125 -1.0625 Z M 3.140625 -1.0625 "/></g></g></g><g fill="#53494c" fill-opacity="1"><g transform="translate(30.51296, 7.787352)"><g><path d="M 5 -1.046875 L 5 0 L 0.65625 0 L 0.65625 -5.59375 L 4.890625 -5.59375 L 4.890625 -4.5625 L 1.953125 -4.5625 L 1.953125 -3.34375 L 4.546875 -3.34375 L 4.546875 -2.34375 L 1.953125 -2.34375 L 1.953125 -1.046875 Z M 5 -1.046875 "/></g></g></g><g fill="#53494c" fill-opacity="1"><g transform="translate(36.681308, 7.787352)"><g><path d="M 5.796875 -5.59375 L 5.796875 0 L 4.734375 0 L 1.9375 -3.40625 L 1.9375 0 L 0.65625 0 L 0.65625 -5.59375 L 1.734375 -5.59375 L 4.515625 -2.203125 L 4.515625 -5.59375 Z M 5.796875 -5.59375 "/></g></g></g><g fill="#53494c" fill-opacity="1"><g transform="translate(43.945719, 7.787352)"><g><path d="M 1.828125 -4.546875 L 0.03125 -4.546875 L 0.03125 -5.59375 L 4.90625 -5.59375 L 4.90625 -4.546875 L 3.125 -4.546875 L 3.125 0 L 1.828125 0 Z M 1.828125 -4.546875 "/></g></g></g><g fill="#53494c" fill-opacity="1"><g transform="translate(49.690035, 7.787352)"><g/></g></g><g fill="#53494c" fill-opacity="1"><g transform="translate(52.754203, 7.787352)"><g><path d="M 5.765625 0 L 5.75 -3.359375 L 4.109375 -0.59375 L 3.515625 -0.59375 L 1.875 -3.28125 L 1.875 0 L 0.65625 0 L 0.65625 -5.59375 L 1.734375 -5.59375 L 3.828125 -2.125 L 5.890625 -5.59375 L 6.953125 -5.59375 L 6.96875 0 Z M 5.765625 0 "/></g></g></g><g fill="#53494c" fill-opacity="1"><g transform="translate(61.194678, 7.787352)"><g><path d="M 4.359375 -1.203125 L 1.75 -1.203125 L 1.25 0 L -0.078125 0 L 2.421875 -5.59375 L 3.703125 -5.59375 L 6.203125 0 L 4.84375 0 Z M 3.9375 -2.1875 L 3.0625 -4.328125 L 2.171875 -2.1875 Z M 3.9375 -2.1875 "/></g></g></g><g fill="#53494c" fill-opacity="1"><g transform="translate(68.123064, 7.787352)"><g><path d="M 5.796875 -5.59375 L 5.796875 0 L 4.734375 0 L 1.9375 -3.40625 L 1.9375 0 L 0.65625 0 L 0.65625 -5.59375 L 1.734375 -5.59375 L 4.515625 -2.203125 L 4.515625 -5.59375 Z M 5.796875 -5.59375 "/></g></g></g><g fill="#53494c" fill-opacity="1"><g transform="translate(75.387475, 7.787352)"><g><path d="M 4.359375 -1.203125 L 1.75 -1.203125 L 1.25 0 L -0.078125 0 L 2.421875 -5.59375 L 3.703125 -5.59375 L 6.203125 0 L 4.84375 0 Z M 3.9375 -2.1875 L 3.0625 -4.328125 L 2.171875 -2.1875 Z M 3.9375 -2.1875 "/></g></g></g><g fill="#53494c" fill-opacity="1"><g transform="translate(82.31586, 7.787352)"><g><path d="M 4.453125 -2.890625 L 5.625 -2.890625 L 5.625 -0.609375 C 5.320312 -0.378906 4.96875 -0.203125 4.5625 -0.078125 C 4.164062 0.0351562 3.769531 0.09375 3.375 0.09375 C 2.789062 0.09375 2.265625 -0.0234375 1.796875 -0.265625 C 1.335938 -0.515625 0.972656 -0.859375 0.703125 -1.296875 C 0.441406 -1.742188 0.3125 -2.242188 0.3125 -2.796875 C 0.3125 -3.347656 0.441406 -3.84375 0.703125 -4.28125 C 0.972656 -4.726562 1.34375 -5.078125 1.8125 -5.328125 C 2.28125 -5.578125 2.804688 -5.703125 3.390625 -5.703125 C 3.878906 -5.703125 4.320312 -5.617188 4.71875 -5.453125 C 5.125 -5.285156 5.460938 -5.046875 5.734375 -4.734375 L 4.90625 -3.953125 C 4.5 -4.378906 4.015625 -4.59375 3.453125 -4.59375 C 3.097656 -4.59375 2.78125 -4.515625 2.5 -4.359375 C 2.226562 -4.210938 2.015625 -4.003906 1.859375 -3.734375 C 1.703125 -3.460938 1.625 -3.148438 1.625 -2.796875 C 1.625 -2.453125 1.703125 -2.144531 1.859375 -1.875 C 2.015625 -1.601562 2.226562 -1.390625 2.5 -1.234375 C 2.769531 -1.085938 3.082031 -1.015625 3.4375 -1.015625 C 3.8125 -1.015625 4.148438 -1.09375 4.453125 -1.25 Z M 4.453125 -2.890625 "/></g></g></g><g fill="#53494c" fill-opacity="1"><g transform="translate(89.284246, 7.787352)"><g><path d="M 5 -1.046875 L 5 0 L 0.65625 0 L 0.65625 -5.59375 L 4.890625 -5.59375 L 4.890625 -4.5625 L 1.953125 -4.5625 L 1.953125 -3.34375 L 4.546875 -3.34375 L 4.546875 -2.34375 L 1.953125 -2.34375 L 1.953125 -1.046875 Z M 5 -1.046875 "/></g></g></g><g fill="#53494c" fill-opacity="1"><g transform="translate(95.452594, 7.787352)"><g><path d="M 5.765625 0 L 5.75 -3.359375 L 4.109375 -0.59375 L 3.515625 -0.59375 L 1.875 -3.28125 L 1.875 0 L 0.65625 0 L 0.65625 -5.59375 L 1.734375 -5.59375 L 3.828125 -2.125 L 5.890625 -5.59375 L 6.953125 -5.59375 L 6.96875 0 Z M 5.765625 0 "/></g></g></g><g fill="#53494c" fill-opacity="1"><g transform="translate(103.893069, 7.787352)"><g><path d="M 5 -1.046875 L 5 0 L 0.65625 0 L 0.65625 -5.59375 L 4.890625 -5.59375 L 4.890625 -4.5625 L 1.953125 -4.5625 L 1.953125 -3.34375 L 4.546875 -3.34375 L 4.546875 -2.34375 L 1.953125 -2.34375 L 1.953125 -1.046875 Z M 5 -1.046875 "/></g></g></g><g fill="#53494c" fill-opacity="1"><g transform="translate(110.061417, 7.787352)"><g><path d="M 5.796875 -5.59375 L 5.796875 0 L 4.734375 0 L 1.9375 -3.40625 L 1.9375 0 L 0.65625 0 L 0.65625 -5.59375 L 1.734375 -5.59375 L 4.515625 -2.203125 L 4.515625 -5.59375 Z M 5.796875 -5.59375 "/></g></g></g><g fill="#53494c" fill-opacity="1"><g transform="translate(117.325828, 7.787352)"><g><path d="M 1.828125 -4.546875 L 0.03125 -4.546875 L 0.03125 -5.59375 L 4.90625 -5.59375 L 4.90625 -4.546875 L 3.125 -4.546875 L 3.125 0 L 1.828125 0 Z M 1.828125 -4.546875 "/></g></g></g><g fill="#53494c" fill-opacity="1"><g transform="translate(123.070144, 7.787352)"><g/></g></g><g fill="#53494c" fill-opacity="1"><g transform="translate(126.134313, 7.787352)"><g><path d="M 2.5 0.09375 C 2.0625 0.09375 1.632812 0.0351562 1.21875 -0.078125 C 0.800781 -0.203125 0.46875 -0.359375 0.21875 -0.546875 L 0.65625 -1.53125 C 0.90625 -1.351562 1.191406 -1.207031 1.515625 -1.09375 C 1.847656 -0.988281 2.179688 -0.9375 2.515625 -0.9375 C 2.878906 -0.9375 3.148438 -0.988281 3.328125 -1.09375 C 3.503906 -1.207031 3.59375 -1.359375 3.59375 -1.546875 C 3.59375 -1.679688 3.539062 -1.789062 3.4375 -1.875 C 3.332031 -1.96875 3.195312 -2.039062 3.03125 -2.09375 C 2.875 -2.144531 2.65625 -2.203125 2.375 -2.265625 C 1.945312 -2.367188 1.597656 -2.46875 1.328125 -2.5625 C 1.054688 -2.664062 0.820312 -2.828125 0.625 -3.046875 C 0.4375 -3.273438 0.34375 -3.578125 0.34375 -3.953125 C 0.34375 -4.273438 0.425781 -4.566406 0.59375 -4.828125 C 0.769531 -5.097656 1.035156 -5.3125 1.390625 -5.46875 C 1.742188 -5.625 2.179688 -5.703125 2.703125 -5.703125 C 3.054688 -5.703125 3.398438 -5.65625 3.734375 -5.5625 C 4.078125 -5.476562 4.378906 -5.359375 4.640625 -5.203125 L 4.234375 -4.21875 C 3.722656 -4.507812 3.207031 -4.65625 2.6875 -4.65625 C 2.320312 -4.65625 2.050781 -4.59375 1.875 -4.46875 C 1.707031 -4.351562 1.625 -4.203125 1.625 -4.015625 C 1.625 -3.828125 1.722656 -3.6875 1.921875 -3.59375 C 2.117188 -3.5 2.425781 -3.40625 2.84375 -3.3125 C 3.269531 -3.207031 3.617188 -3.101562 3.890625 -3 C 4.160156 -2.90625 4.390625 -2.75 4.578125 -2.53125 C 4.773438 -2.3125 4.875 -2.015625 4.875 -1.640625 C 4.875 -1.316406 4.785156 -1.023438 4.609375 -0.765625 C 4.429688 -0.503906 4.160156 -0.296875 3.796875 -0.140625 C 3.441406 0.015625 3.007812 0.09375 2.5 0.09375 Z M 2.5 0.09375 "/></g></g></g><g fill="#53494c" fill-opacity="1"><g transform="translate(132.03864, 7.787352)"><g><path d="M 3.359375 -1.984375 L 3.359375 0 L 2.0625 0 L 2.0625 -2 L -0.109375 -5.59375 L 1.265625 -5.59375 L 2.765625 -3.109375 L 4.25 -5.59375 L 5.53125 -5.59375 Z M 3.359375 -1.984375 "/></g></g></g><g fill="#53494c" fill-opacity="1"><g transform="translate(138.246988, 7.787352)"><g><path d="M 2.5 0.09375 C 2.0625 0.09375 1.632812 0.0351562 1.21875 -0.078125 C 0.800781 -0.203125 0.46875 -0.359375 0.21875 -0.546875 L 0.65625 -1.53125 C 0.90625 -1.351562 1.191406 -1.207031 1.515625 -1.09375 C 1.847656 -0.988281 2.179688 -0.9375 2.515625 -0.9375 C 2.878906 -0.9375 3.148438 -0.988281 3.328125 -1.09375 C 3.503906 -1.207031 3.59375 -1.359375 3.59375 -1.546875 C 3.59375 -1.679688 3.539062 -1.789062 3.4375 -1.875 C 3.332031 -1.96875 3.195312 -2.039062 3.03125 -2.09375 C 2.875 -2.144531 2.65625 -2.203125 2.375 -2.265625 C 1.945312 -2.367188 1.597656 -2.46875 1.328125 -2.5625 C 1.054688 -2.664062 0.820312 -2.828125 0.625 -3.046875 C 0.4375 -3.273438 0.34375 -3.578125 0.34375 -3.953125 C 0.34375 -4.273438 0.425781 -4.566406 0.59375 -4.828125 C 0.769531 -5.097656 1.035156 -5.3125 1.390625 -5.46875 C 1.742188 -5.625 2.179688 -5.703125 2.703125 -5.703125 C 3.054688 -5.703125 3.398438 -5.65625 3.734375 -5.5625 C 4.078125 -5.476562 4.378906 -5.359375 4.640625 -5.203125 L 4.234375 -4.21875 C 3.722656 -4.507812 3.207031 -4.65625 2.6875 -4.65625 C 2.320312 -4.65625 2.050781 -4.59375 1.875 -4.46875 C 1.707031 -4.351562 1.625 -4.203125 1.625 -4.015625 C 1.625 -3.828125 1.722656 -3.6875 1.921875 -3.59375 C 2.117188 -3.5 2.425781 -3.40625 2.84375 -3.3125 C 3.269531 -3.207031 3.617188 -3.101562 3.890625 -3 C 4.160156 -2.90625 4.390625 -2.75 4.578125 -2.53125 C 4.773438 -2.3125 4.875 -2.015625 4.875 -1.640625 C 4.875 -1.316406 4.785156 -1.023438 4.609375 -0.765625 C 4.429688 -0.503906 4.160156 -0.296875 3.796875 -0.140625 C 3.441406 0.015625 3.007812 0.09375 2.5 0.09375 Z M 2.5 0.09375 "/></g></g></g><g fill="#53494c" fill-opacity="1"><g transform="translate(144.151316, 7.787352)"><g><path d="M 1.828125 -4.546875 L 0.03125 -4.546875 L 0.03125 -5.59375 L 4.90625 -5.59375 L 4.90625 -4.546875 L 3.125 -4.546875 L 3.125 0 L 1.828125 0 Z M 1.828125 -4.546875 "/></g></g></g><g fill="#53494c" fill-opacity="1"><g transform="translate(149.895631, 7.787352)"><g><path d="M 5 -1.046875 L 5 0 L 0.65625 0 L 0.65625 -5.59375 L 4.890625 -5.59375 L 4.890625 -4.5625 L 1.953125 -4.5625 L 1.953125 -3.34375 L 4.546875 -3.34375 L 4.546875 -2.34375 L 1.953125 -2.34375 L 1.953125 -1.046875 Z M 5 -1.046875 "/></g></g></g><g fill="#53494c" fill-opacity="1"><g transform="translate(156.063979, 7.787352)"><g><path d="M 5.765625 0 L 5.75 -3.359375 L 4.109375 -0.59375 L 3.515625 -0.59375 L 1.875 -3.28125 L 1.875 0 L 0.65625 0 L 0.65625 -5.59375 L 1.734375 -5.59375 L 3.828125 -2.125 L 5.890625 -5.59375 L 6.953125 -5.59375 L 6.96875 0 Z M 5.765625 0 "/></g></g></g></g></g><g fill="#53494c" fill-opacity="1"><g transform="translate(171.935146, 217.853657)"><g><path d="M 3.4375 0.125 C 2.832031 0.125 2.242188 0.046875 1.671875 -0.109375 C 1.109375 -0.273438 0.65625 -0.492188 0.3125 -0.765625 L 0.90625 -2.09375 C 1.238281 -1.851562 1.628906 -1.660156 2.078125 -1.515625 C 2.535156 -1.367188 2.992188 -1.296875 3.453125 -1.296875 C 3.960938 -1.296875 4.335938 -1.367188 4.578125 -1.515625 C 4.816406 -1.671875 4.9375 -1.875 4.9375 -2.125 C 4.9375 -2.300781 4.863281 -2.453125 4.71875 -2.578125 C 4.582031 -2.703125 4.398438 -2.800781 4.171875 -2.875 C 3.953125 -2.945312 3.648438 -3.023438 3.265625 -3.109375 C 2.679688 -3.253906 2.203125 -3.394531 1.828125 -3.53125 C 1.453125 -3.664062 1.128906 -3.882812 0.859375 -4.1875 C 0.597656 -4.5 0.46875 -4.914062 0.46875 -5.4375 C 0.46875 -5.882812 0.585938 -6.285156 0.828125 -6.640625 C 1.066406 -7.003906 1.429688 -7.289062 1.921875 -7.5 C 2.410156 -7.71875 3.003906 -7.828125 3.703125 -7.828125 C 4.191406 -7.828125 4.671875 -7.769531 5.140625 -7.65625 C 5.617188 -7.539062 6.03125 -7.375 6.375 -7.15625 L 5.828125 -5.796875 C 5.117188 -6.203125 4.410156 -6.40625 3.703125 -6.40625 C 3.203125 -6.40625 2.832031 -6.320312 2.59375 -6.15625 C 2.351562 -6 2.234375 -5.785156 2.234375 -5.515625 C 2.234375 -5.253906 2.367188 -5.054688 2.640625 -4.921875 C 2.921875 -4.796875 3.34375 -4.671875 3.90625 -4.546875 C 4.488281 -4.410156 4.96875 -4.269531 5.34375 -4.125 C 5.71875 -3.988281 6.035156 -3.769531 6.296875 -3.46875 C 6.566406 -3.175781 6.703125 -2.769531 6.703125 -2.25 C 6.703125 -1.8125 6.578125 -1.410156 6.328125 -1.046875 C 6.085938 -0.679688 5.722656 -0.394531 5.234375 -0.1875 C 4.742188 0.0195312 4.144531 0.125 3.4375 0.125 Z M 3.4375 0.125 "/></g></g></g><g fill="#53494c" fill-opacity="1"><g transform="translate(182.248172, 217.853657)"><g><path d="M 7.921875 0 L 7.90625 -4.625 L 5.640625 -0.8125 L 4.84375 -0.8125 L 2.578125 -4.515625 L 2.578125 0 L 0.90625 0 L 0.90625 -7.703125 L 2.390625 -7.703125 L 5.265625 -2.921875 L 8.109375 -7.703125 L 9.5625 -7.703125 L 9.59375 0 Z M 7.921875 0 "/></g></g></g><g fill="#53494c" fill-opacity="1"><g transform="translate(196.045729, 217.853657)"><g><path d="M 3.4375 0.125 C 2.832031 0.125 2.242188 0.046875 1.671875 -0.109375 C 1.109375 -0.273438 0.65625 -0.492188 0.3125 -0.765625 L 0.90625 -2.09375 C 1.238281 -1.851562 1.628906 -1.660156 2.078125 -1.515625 C 2.535156 -1.367188 2.992188 -1.296875 3.453125 -1.296875 C 3.960938 -1.296875 4.335938 -1.367188 4.578125 -1.515625 C 4.816406 -1.671875 4.9375 -1.875 4.9375 -2.125 C 4.9375 -2.300781 4.863281 -2.453125 4.71875 -2.578125 C 4.582031 -2.703125 4.398438 -2.800781 4.171875 -2.875 C 3.953125 -2.945312 3.648438 -3.023438 3.265625 -3.109375 C 2.679688 -3.253906 2.203125 -3.394531 1.828125 -3.53125 C 1.453125 -3.664062 1.128906 -3.882812 0.859375 -4.1875 C 0.597656 -4.5 0.46875 -4.914062 0.46875 -5.4375 C 0.46875 -5.882812 0.585938 -6.285156 0.828125 -6.640625 C 1.066406 -7.003906 1.429688 -7.289062 1.921875 -7.5 C 2.410156 -7.71875 3.003906 -7.828125 3.703125 -7.828125 C 4.191406 -7.828125 4.671875 -7.769531 5.140625 -7.65625 C 5.617188 -7.539062 6.03125 -7.375 6.375 -7.15625 L 5.828125 -5.796875 C 5.117188 -6.203125 4.410156 -6.40625 3.703125 -6.40625 C 3.203125 -6.40625 2.832031 -6.320312 2.59375 -6.15625 C 2.351562 -6 2.234375 -5.785156 2.234375 -5.515625 C 2.234375 -5.253906 2.367188 -5.054688 2.640625 -4.921875 C 2.921875 -4.796875 3.34375 -4.671875 3.90625 -4.546875 C 4.488281 -4.410156 4.96875 -4.269531 5.34375 -4.125 C 5.71875 -3.988281 6.035156 -3.769531 6.296875 -3.46875 C 6.566406 -3.175781 6.703125 -2.769531 6.703125 -2.25 C 6.703125 -1.8125 6.578125 -1.410156 6.328125 -1.046875 C 6.085938 -0.679688 5.722656 -0.394531 5.234375 -0.1875 C 4.742188 0.0195312 4.144531 0.125 3.4375 0.125 Z M 3.4375 0.125 "/></g></g></g></svg>